<mxfile host="app.diagrams.net" agent="Mozilla/5.0 (Windows NT 10.0; Win64; x64) AppleWebKit/537.36 (KHTML, like Gecko) Chrome/131.0.0.0 Safari/537.36" version="25.0.3">
  <diagram name="Page-1" id="ej8ePp-fl9iRL0BRLhF_">
    <mxGraphModel dx="1050" dy="522" grid="1" gridSize="10" guides="1" tooltips="1" connect="1" arrows="1" fold="1" page="1" pageScale="1" pageWidth="827" pageHeight="1169" math="0" shadow="0">
      <root>
        <mxCell id="0" />
        <mxCell id="1" parent="0" />
        <mxCell id="LKEjRX9hiPMMhIE1WfmC-1" value="" style="edgeStyle=orthogonalEdgeStyle;rounded=0;orthogonalLoop=1;jettySize=auto;html=1;" edge="1" parent="1" source="LKEjRX9hiPMMhIE1WfmC-2" target="LKEjRX9hiPMMhIE1WfmC-4">
          <mxGeometry relative="1" as="geometry" />
        </mxCell>
        <mxCell id="LKEjRX9hiPMMhIE1WfmC-2" value="start" style="ellipse;whiteSpace=wrap;html=1;" vertex="1" parent="1">
          <mxGeometry x="360" y="30" width="130" height="40" as="geometry" />
        </mxCell>
        <mxCell id="LKEjRX9hiPMMhIE1WfmC-3" value="" style="edgeStyle=orthogonalEdgeStyle;rounded=0;orthogonalLoop=1;jettySize=auto;html=1;" edge="1" parent="1" source="LKEjRX9hiPMMhIE1WfmC-4" target="LKEjRX9hiPMMhIE1WfmC-7">
          <mxGeometry relative="1" as="geometry" />
        </mxCell>
        <mxCell id="LKEjRX9hiPMMhIE1WfmC-4" value="รับค่า num" style="shape=parallelogram;perimeter=parallelogramPerimeter;whiteSpace=wrap;html=1;fixedSize=1;" vertex="1" parent="1">
          <mxGeometry x="365" y="110" width="120" height="50" as="geometry" />
        </mxCell>
        <mxCell id="LKEjRX9hiPMMhIE1WfmC-5" value="" style="edgeStyle=orthogonalEdgeStyle;rounded=0;orthogonalLoop=1;jettySize=auto;html=1;" edge="1" parent="1" source="LKEjRX9hiPMMhIE1WfmC-7">
          <mxGeometry relative="1" as="geometry">
            <mxPoint x="570" y="230" as="targetPoint" />
          </mxGeometry>
        </mxCell>
        <mxCell id="LKEjRX9hiPMMhIE1WfmC-6" style="edgeStyle=orthogonalEdgeStyle;rounded=0;orthogonalLoop=1;jettySize=auto;html=1;exitX=0.5;exitY=1;exitDx=0;exitDy=0;entryX=0.5;entryY=0;entryDx=0;entryDy=0;" edge="1" parent="1" source="LKEjRX9hiPMMhIE1WfmC-7" target="LKEjRX9hiPMMhIE1WfmC-11">
          <mxGeometry relative="1" as="geometry" />
        </mxCell>
        <mxCell id="LKEjRX9hiPMMhIE1WfmC-7" value="num &amp;gt;= 0" style="rhombus;whiteSpace=wrap;html=1;" vertex="1" parent="1">
          <mxGeometry x="345" y="190" width="160" height="80" as="geometry" />
        </mxCell>
        <mxCell id="LKEjRX9hiPMMhIE1WfmC-8" style="edgeStyle=orthogonalEdgeStyle;rounded=0;orthogonalLoop=1;jettySize=auto;html=1;exitX=0.5;exitY=1;exitDx=0;exitDy=0;entryX=1;entryY=0.5;entryDx=0;entryDy=0;" edge="1" parent="1" source="LKEjRX9hiPMMhIE1WfmC-9" target="LKEjRX9hiPMMhIE1WfmC-15">
          <mxGeometry relative="1" as="geometry" />
        </mxCell>
        <mxCell id="LKEjRX9hiPMMhIE1WfmC-9" value="แสดง Positive" style="shape=parallelogram;perimeter=parallelogramPerimeter;whiteSpace=wrap;html=1;fixedSize=1;" vertex="1" parent="1">
          <mxGeometry x="560" y="205" width="180" height="50" as="geometry" />
        </mxCell>
        <mxCell id="LKEjRX9hiPMMhIE1WfmC-10" value="" style="edgeStyle=orthogonalEdgeStyle;rounded=0;orthogonalLoop=1;jettySize=auto;html=1;" edge="1" parent="1" source="LKEjRX9hiPMMhIE1WfmC-11" target="LKEjRX9hiPMMhIE1WfmC-15">
          <mxGeometry relative="1" as="geometry" />
        </mxCell>
        <mxCell id="LKEjRX9hiPMMhIE1WfmC-11" value="แสดง Negative" style="shape=parallelogram;perimeter=parallelogramPerimeter;whiteSpace=wrap;html=1;fixedSize=1;" vertex="1" parent="1">
          <mxGeometry x="335" y="320" width="180" height="50" as="geometry" />
        </mxCell>
        <mxCell id="LKEjRX9hiPMMhIE1WfmC-12" value="จริง" style="text;html=1;align=center;verticalAlign=middle;whiteSpace=wrap;rounded=0;" vertex="1" parent="1">
          <mxGeometry x="490" y="200" width="60" height="30" as="geometry" />
        </mxCell>
        <mxCell id="LKEjRX9hiPMMhIE1WfmC-13" value="เท็จ" style="text;html=1;align=center;verticalAlign=middle;whiteSpace=wrap;rounded=0;" vertex="1" parent="1">
          <mxGeometry x="414" y="280" width="60" height="30" as="geometry" />
        </mxCell>
        <mxCell id="LKEjRX9hiPMMhIE1WfmC-14" value="" style="edgeStyle=orthogonalEdgeStyle;rounded=0;orthogonalLoop=1;jettySize=auto;html=1;" edge="1" parent="1" source="LKEjRX9hiPMMhIE1WfmC-15" target="LKEjRX9hiPMMhIE1WfmC-16">
          <mxGeometry relative="1" as="geometry" />
        </mxCell>
        <mxCell id="LKEjRX9hiPMMhIE1WfmC-15" value="" style="ellipse;whiteSpace=wrap;html=1;aspect=fixed;" vertex="1" parent="1">
          <mxGeometry x="405" y="440" width="40" height="40" as="geometry" />
        </mxCell>
        <mxCell id="LKEjRX9hiPMMhIE1WfmC-16" value="end" style="ellipse;whiteSpace=wrap;html=1;" vertex="1" parent="1">
          <mxGeometry x="360" y="545" width="130" height="40" as="geometry" />
        </mxCell>
      </root>
    </mxGraphModel>
  </diagram>
</mxfile>
